<?xml version="1.0" encoding="utf-8"?>
<!-- Generator: Adobe Illustrator 27.5.0, SVG Export Plug-In . SVG Version: 6.00 Build 0)  -->
<svg version="1.1" id="Layer_1" xmlns="http://www.w3.org/2000/svg" xmlns:xlink="http://www.w3.org/1999/xlink" x="0px" y="0px"
	 viewBox="0 0 3000 2000" style="enable-background:new 0 0 3000 2000;" xml:space="preserve">
<rect style="fill:#FFFFFF;" width="3000" height="2000"/>
<g>
	<g>
		<g>
			<path style="fill:#223247;" d="M2551.135,268.297c0,0-15.74-34.438-47.555-19.351c-31.81,15.085-26.565,60.775-14.757,80.073
				c11.805,19.3,54.032,47.831,40.299,82.595c-13.732,34.764-31.116,61.656-31.116,61.656s85.269-3.855,94.781-49.153
				C2602.297,378.818,2551.135,268.297,2551.135,268.297z"/>
		</g>
		<path style="fill:#F08D29;" d="M2721.329,676.686c-2.585-12.626-4.599-12.201-6.024-30.439
			c-1.426-18.242-3.248-105.396-3.677-116.121c-0.427-10.727-2.486-61.232-14.052-82.348
			c-11.815-21.569-50.148-34.611-50.148-34.611s19.824,105.79,19.604,127.767c-0.068,6.614,2.044,18.644,5.101,32.493
			c0.023,0.107,0.046,0.218,0.067,0.328c0.643,3.051,0.664,5.661,0.375,8.035c-0.971,7.904-5.473,13.189-2.707,23.564l-0.057,5.539
			c0.273,1.036,0.552,2.079,0.825,3.125c3.897,14.961,7.502,30.916,9.187,38.071c0.353,1.486,0.623,2.594,0.791,3.232
			c2.581,9.674-0.569,4.527,4.011,28.754C2684.624,684.076,2726.314,701.021,2721.329,676.686z"/>
		<path style="fill:#8E4F3A;" d="M2504.549,745.678c0,0-32.778,42.619-41.672,93.181c-8.891,50.562,5.251,220.264,4.865,245.253
			c-0.387,24.989-23.637,87.177-18.985,134.25c4.647,47.075,43.431,284.065,43.431,284.065l30.527-5.627
			c0,0-3.639-245.893-0.731-265.652c2.907-19.76,8.737-91.786,9.899-99.922c1.163-8.137,73.79-221.786,73.79-258.239
			C2605.673,836.533,2583.589,686.205,2504.549,745.678z"/>
		<path style="fill:#8E4F3A;" d="M2669.214,762.338c0,0,53.855,205.541,60.248,234.018c6.392,28.477,15.653,51.963,15.653,64.055
			c0,28.054,10.871,82.097,10.871,82.097l58.672,331.328h-33.629c0,0-83.19-216.603-92.549-265.698
			c-7.207-37.787-8.575-85.245-14.39-101.517c-5.811-16.272-104.452-193.953-104.452-193.953S2503.193,702.67,2669.214,762.338z"/>
		<path style="fill:#292C47;" d="M2745.115,1060.411c0,0-124.565,53.48-310.031,53.48c0,0,8.137-241.627,35.1-302.145
			c26.963-60.518,203.325-33.292,203.325-33.292S2745.115,1009.706,2745.115,1060.411z"/>
		<g>
			<path style="fill:#F08D29;" d="M2688.51,562.041c-13.969,32.353-0.795,43.148-7.18,75.502
				c-6.399,32.354-6.388,120.566-5.199,138.544c1.212,17.968-175.214,62.891-212.357,30.133c0,0,9.662-33.836,21.861-69.943
				c1.512-4.458,3.058-8.958,4.629-13.427c6.055-17.24,12.491-34.098,18.523-47.173c3.905-8.464,5.961-46.125,1.564-57.312
				c-1.695-4.318-10.121-19.411-19.807-36.308c-4.055-7.043-8.319-14.415-12.416-21.438c-11.531-19.784-21.689-36.923-21.689-36.923
				s-10.252-83.292,11.358-100.067c7.387-5.732,20.793-10.231,34.905-13.782c5.296-1.323,10.713-2.513,15.932-3.582
				c16.23-3.359,30.677-5.537,34.904-7.001c9.179-3.198,35.906-4.59,54.688-1.795c0,0,28.752,13.58,38.738,15.577
				c9.989,1.997,48.738,52.338,55.528,70.701C2709.295,502.126,2702.494,529.688,2688.51,562.041z"/>
		</g>
		<g>
			<path style="fill:#8E4F3A;" d="M2621.957,364.287c0,0-0.725,6.616-1.591,15.947c-0.401,4.245-0.837,9.07-1.271,14.069
				c-1.212,14.963-2.251,31.603-1.673,39.924c0,0-29.901,29.927-63.872-34.956c0,0,14.3-26.75,3.522-63.207
				C2546.299,299.606,2621.957,364.287,2621.957,364.287z"/>
		</g>
		<path style="fill:#8E4F3A;" d="M2530.574,403.87c0,0,36.173,58.727,77.004,56.255c56.516-3.419,26.758-51.271,26.758-51.271
			s-14.067-8.067-18.028-8.828c-3.958-0.762-62.405-1.503-62.405-1.503L2530.574,403.87z"/>
		<g>
			<path style="fill:#F08D29;" d="M2508.4,414.9c0,0-37.688-6.512-58.271,27.018c-23.554,38.371-23.164,56.025-26.795,75.389
				c-3.432,18.285-14.689,47.725-16.114,52.858c-1.426,5.135-28.769,57.458-17.443,79.624
				c11.381,22.28,118.991,38.641,120.263,43.332c0.807,2.985,12.725-37.789,12.725-37.789s-15.819-3.363-31.091-8.409
				c-18.575-6.135-37.203-17.868-34.649-27.4c5.623-21.003,24.597-68.961,29.837-78.926
				C2492.099,530.632,2538.357,429.217,2508.4,414.9z"/>
		</g>
		<path style="fill:#51578C;" d="M2786.074,1470.319c0,0,11.738-10.44,17.597-11.673c5.863-1.234,11.415-0.926,13.884,1.851
			c2.468,2.776,9.58,13.88,13.425,17.273c3.845,3.394,31.3,29.921,37.778,31.772c6.479,1.852,34.549,0.31,33.003,16.657
			c-1.542,16.348-24.368,23.443-65.083,19.74c-40.719-3.7-35.782-13.262-58.608-18.199c-22.826-4.934-24.368-16.347-20.357-30.229
			c4.01-13.881,20.178-27.691,18.505-31.392C2774.547,1462.422,2786.074,1470.319,2786.074,1470.319z"/>
		<path style="fill:#51578C;" d="M2498.404,1499.926c0,0,13.001-5.9,21.662-5.593c8.662,0.312,7.731,5.617,9.9,8.841
			c2.164,3.225,22.582,34.158,28.148,39.727c5.566,5.566,25.365,11.444,22.582,25.365s-27.841,19.487-58.773,15.466
			c-30.937-4.021-46.095-32.789-51.043-39.285c-4.951-6.496,11.753-48.258,16.705-51.197
			C2492.533,1490.312,2498.404,1499.926,2498.404,1499.926z"/>
		<path style="fill:#C9B9B3;" d="M2702.724,520.406c0,0-8.241,29.503-14.994,44.133c-6.756,14.631-5.601,32.637-5.067,43.611
			c0.536,10.972,0.251,23.876-3.249,42.182c0,0,0.507,15.558,3.567,15.432C2682.98,665.764,2697.27,626.609,2702.724,520.406z"/>
		<g>
			<path style="fill:#51578C;" d="M2526.853,251.03c0,0-17.709,8.854-16.727,34.762c0.983,25.909,26.379,45.907,37.389,40.636
				C2558.523,321.156,2526.853,251.03,2526.853,251.03z"/>
		</g>
		<g>
			<path style="fill:#8E4F3A;" d="M2639.013,211.675c0,0,34.437,22.629,31.487,70.511c-2.951,47.882-19.021,95.764-28.861,100.027
				c-9.839,4.265-51.721-11.347-60.022-15.746c-9.404-4.978-25.685-23.062-28.963-28.638c-3.282-5.574-37.936-81.553-4.482-110.413
				C2581.62,198.555,2599.003,197.244,2639.013,211.675z"/>
		</g>
		<g>
			<path style="fill:#223247;" d="M2611.465,268.739c0,0,29.532,10.854,59.205,8.215c0,0,9.666-84.63-75.11-84.63
				c-84.777,0-72.315,84.613-70.677,96.092c1.64,11.479,17.178,52.706,35.333,62.256c0,0-6.471-43.562,5.664-51.432
				C2578.016,291.368,2605.233,281.857,2611.465,268.739z"/>
		</g>
		<g>
			<path style="fill:#8E4F3A;" d="M2583.264,290.057c-1.729-9.631-10.826-18.694-21.318-8.856
				c-10.496,9.839,7.213,34.436,14.757,33.124C2584.246,313.015,2585.559,302.847,2583.264,290.057z"/>
		</g>
		<g>
			<path style="fill:#C44747;" d="M2666.914,595.124H2502.91c-0.964,0-1.746-0.781-1.746-1.745v-34.243
				c0-0.964,0.782-1.745,1.746-1.745h164.004V595.124z"/>
			<path style="fill:#E68E35;" d="M2645.395,632.857H2481.39c-0.964,0-1.745-0.781-1.745-1.745v-34.243
				c0-0.964,0.781-1.745,1.745-1.745h164.005V632.857z"/>
			<path style="fill:#58A668;" d="M2666.914,670.59H2502.91c-0.964,0-1.746-0.781-1.746-1.745v-34.243
				c0-0.964,0.782-1.745,1.746-1.745h164.004V670.59z"/>
			<path style="fill:#E55353;" d="M2738.66,595.124h-164.002c-0.964,0-1.745-0.781-1.745-1.745v-34.243
				c0-0.964,0.781-1.745,1.745-1.745h164.002V595.124z"/>
			<path style="fill:#FAE6DE;" d="M2738.66,590.997h-159.47c-0.964,0-1.745-0.781-1.745-1.745v-25.992
				c0-0.964,0.781-1.745,1.745-1.745h159.47V590.997z"/>
			<path style="fill:#5084C7;" d="M2729.057,557.391h-220.091c-1.116,0-2.021-0.904-2.021-2.021v-33.694
				c0-1.116,0.904-2.021,2.021-2.021h220.091V557.391z"/>
			<path style="fill:#5E9BEB;" d="M2729.057,557.391h-92.687c-0.726,0-1.314-0.588-1.314-1.315V520.97
				c0-0.726,0.589-1.315,1.314-1.315h92.687V557.391z"/>
			<path style="fill:#FAE6DE;" d="M2729.057,553.265h-90.114c-0.726,0-1.313-0.588-1.313-1.313v-26.855
				c0-0.726,0.588-1.314,1.314-1.314h90.113V553.265z"/>
			<path style="fill:#FAA146;" d="M2717.139,632.857h-164c-0.965,0-1.746-0.781-1.746-1.745v-34.243
				c0-0.964,0.781-1.745,1.746-1.745h164V632.857z"/>
			<path style="fill:#6DBD7D;" d="M2738.66,670.59h-164.002c-0.964,0-1.745-0.781-1.745-1.745v-34.243
				c0-0.964,0.781-1.745,1.745-1.745h164.002V670.59z"/>
			<path style="fill:#FAE6DE;" d="M2717.139,628.973H2557.67c-0.964,0-1.745-0.781-1.745-1.745v-26.476
				c0-0.964,0.781-1.745,1.745-1.745h159.469V628.973z"/>
			<path style="fill:#FAE6DE;" d="M2738.66,666.153h-159.47c-0.964,0-1.745-0.781-1.745-1.745V639.04
				c0-0.964,0.781-1.745,1.745-1.745h159.47V666.153z"/>
		</g>
		<g>
			<path style="fill:#8E4F3A;" d="M2509.162,659.206c0,0-14.19,7.521-10.177,12.934c4.018,5.411,10.016,11.936,10.016,11.936
				L2509.162,659.206z"/>
			<path style="fill:#8E4F3A;" d="M2625.884,671.216l-67.461-7.095c6.159-2.844,16.164-8.032,14.345-11.01
				c-2.596-4.253-22.553,2.616-30.4,2.661c-7.187,0.044-16.633,4.072-18.17,4.748l-16.588-1.745l1.392,25.3
				c0,0,35.385,7.572,45.648,9.293c16.688,2.798,70.042-12.283,71.186-15.237C2627.906,672.801,2625.884,671.216,2625.884,671.216z"
				/>
		</g>
		<path style="fill:#F08D29;" d="M2522.765,655.333c0,0-5.932,30.979-15.819,44.052c0,0-64.621-23.319-80.669-29.321l40.303-35.456
			C2466.579,634.607,2488.887,647.849,2522.765,655.333z"/>
		<path style="fill:#8E4F3A;" d="M2730.587,657.279c0,0,1.151,24.064-13.306,29.377c-14.46,5.315-31.052,2.875-38.288-0.225
			c-7.235-3.101-25.591-12.298-19.844-19.435C2677.602,644.098,2730.587,657.279,2730.587,657.279z"/>
		<path style="fill:#8E4F3A;" d="M2726.033,673.966c0,0,18.718-0.276,17.004-7.019c-1.714-6.741-14.825-3.053-14.825-3.053
			L2726.033,673.966z"/>
		<path style="fill:#613628;" d="M2620.366,380.234c-0.401,4.245-0.837,9.07-1.271,14.069
			c-28.771-10.458-40.645-29.814-40.645-29.814C2585.844,370.528,2620.366,380.234,2620.366,380.234z"/>
	</g>
	<g>
		<g>
			<g>
				<path style="fill:#424773;" d="M243.404,1317.587c0,0,13.861,25.457,15.845,29.319c1.984,3.859,42.227-18.387,42.227-18.387
					l-8.44-33.303C293.037,1295.217,247.325,1311.813,243.404,1317.587z"/>
			</g>
		</g>
		<g>
			<g>
				<path style="fill:#8B92DB;" d="M257.527,1343.654c0,0-7.487,21.222-17.927,33.136c-10.436,11.915-56.35,35.564-61.358,45.743
					c-3.616,7.35-4.997,32.043,70.593,1.715c53.706-21.547,81.596-26.645,84.173-37.516c2.577-10.871-32.287-61.19-32.287-61.19
					S290.452,1334.975,257.527,1343.654z"/>
			</g>
		</g>
		<g>
			<path style="fill:#8B92DB;" d="M650.243,1455.019c0,0,11.207,39.425,14.313,52.742c3.108,13.318-1.549,48.163,1.557,61.479
				c3.107,13.317,10.826,17.143,17.026,15.357c6.202-1.785,22.004-7.037,35.469-22.906c13.463-15.87,8.185-45.159,9.808-63.866
				c1.519-17.514,9.295-26.761-5.834-41.322c-19.485-18.756-22.092-29.502-22.092-29.502L650.243,1455.019z"/>
		</g>
		<g>
			<path style="fill:#E3E3E3;" d="M375.889,904.315c0,0,6.846,76.929,13.669,122.996c6.287,42.463,41.788,176.583,54.203,194.215
				c22.597,32.092,74.108,85.666,84.784,99.759c17.394,22.962,120.764,160.145,120.764,160.145s28.997-6.42,66.964-42.444
				c0,0-107.839-122.084-123.922-158.206c-12.218-27.44-65.042-106.502-64.787-119.22c0.429-21.232-14.691-257.453-36.165-299.581
				C469.927,819.854,375.889,904.315,375.889,904.315z"/>
		</g>
		<g>
			<path style="fill:#E3E3E3;" d="M310.66,858.549c0,0-134.293,121.733-150.756,149.37c-16.464,27.638-27.05,31.167-19.994,60.568
				c7.06,29.4,109.355,266.588,111.14,274.022c1.962,8.176,54.111-16.378,58.815-16.967c4.704-0.587-21.937-71.552-31.934-100.366
				c-9.993-28.814-40.7-127.289-48.934-141.99c-8.23-14.699,165.532-104.669,183.759-126.426
				C430.986,935.004,404.746,834.048,310.66,858.549z"/>
		</g>
		<path style="fill:#D88A51;" d="M301.477,870.067c0,0,86.45,95.374,228.475,146.7l-22.494-84.666L301.477,870.067z"/>
		<g>
			<path style="fill:#EEA886;" d="M185.787,380.786c-13.636-28.926-50.799-164.052-50.799-164.052l29.473-3.656
				c0,0,19.566,33.446,42.242,94.616c6.767,18.253,34.387,52.162,35.737,55.266c1.354,3.104,54.287,68.697,75.388,80.611
				c9.861,5.571,31.232,19.861,44.976,37.18c13.749,17.304,3.935,37.953,3.935,37.953c-37.216,38.56-91.758-22.614-91.758-22.614
				S210.57,433.371,185.787,380.786z"/>
		</g>
		<path style="fill:#323657;" d="M292.969,664.885c0,0,2.544,19.124,15.38,25.705l11.059-20.954L292.969,664.885z"/>
		<path style="fill:#323657;" d="M484.564,750.47c1.81,32.65,8.939,67.081,23.743,102.385c0,0,46.434,19.189,68.851-9.907
			c8.831-11.454,16.528-49.96,19.78-99.07c5.019-75.624-0.535-176.401-28.817-242.291
			C568.122,501.586,476.683,609.341,484.564,750.47z"/>
		<path style="fill:#979FF0;" d="M484.564,750.47c1.81,32.65,8.939,67.081,23.743,102.385c0,0,46.434,19.189,68.851-9.907
			c8.831-11.454,16.528-49.96,19.78-99.07L484.564,750.47z"/>
		<path style="fill:#EEA886;" d="M101.846,136.775c2.524-0.156,15.342,22.327,20.688,31.915c0.172-0.133,0.345-0.265,0.521-0.394
			c-4.888-12.405-17.949-45.579-19.176-48.805c-1.511-3.978,2.96-6.812,5.413-5.484c2.292,1.24,18.711,36.006,24.638,48.676
			c0.101-0.038,0.199-0.075,0.3-0.113c-5.308-13.617-20.387-52.43-20.658-54.563c-0.33-2.59,4.888-4.366,6.373-2.821
			c2.124,2.217,20.47,41.633,26.311,54.242c0.282-0.045,0.563-0.088,0.837-0.129c-2.581-10.894-9.633-40.659-10.488-44.498
			c-1.047-4.712,1.598-5.785,5.248-3.416c3.278,2.129,14.311,42.419,16.524,50.605c3.035,7.145,4.94,25.807,8.357,22.162
			c3.868-4.127,18.126-26.429,23.85-24.096c5.728,2.333-5.836,14.977-7.903,19.767c-1.55,3.583-6.55,15.225-13.152,20.654
			c-7.765,6.385-4.437,23.086-4.437,23.086l-26.848,3.297c0,0-2.378-8.373-3.976-11.893c-1.268-2.785-14.295-17.799-17.541-34.321
			c-0.052-0.267-0.09-0.531-0.12-0.793h-0.004c0,0-10.455-23.229-15.867-32.433C95.319,138.221,99.888,136.897,101.846,136.775z"/>
		<g>
			<path style="fill:#EEA886;" d="M767.131,895.99c0,0,24.161,45.398,23.107,49.619c-1.054,4.224-3.721,5.24-6.167,1.078
				c-2.444-4.16-24.681-43.262-24.681-43.262s19.096,57.997,19.043,61.654c-0.03,2.142-5.06,4.4-6.585,2.281
				c-1.526-2.12-23.929-58.674-23.929-58.674s17.725,54.178,16.708,57.2c-0.891,2.644-6.092,3.618-7.697-0.323
				c-1.607-3.941-21.066-53.43-21.066-53.43s10.278,40.128,7.797,42.169c-1.518,1.248-5.762,3.393-8.071-7.032
				c-2.31-10.424-10.496-34.546-10.496-34.546L767.131,895.99z"/>
		</g>
		<g>
			<g>
				<path style="fill:#EEA886;" d="M730.778,847.689c0,0,8.949,14.489,18.981,13.87c8.53-0.529,20.128,4.58,23.7,6.146
					c4.779,2.095,21.858,3.464,19.26,9.074c-2.597,5.61-28.235-0.988-33.877-1.371c-5.644-0.384,9.637,18.854,9.535,24.358
					c-0.099,5.505-34.847,26.59-43.735,12.291c-8.891-14.299-8.474-34.83-10.562-37.067c-2.087-2.238-6.9-10.175-6.9-10.175
					L730.778,847.689z"/>
			</g>
		</g>
		<path style="fill:#D44040;" d="M406.708,458.739c0,0-49.425,9.699-71.494-3.744c-8.41,5.857-26.318,85.03-29.082,103.167
			c-2.765,18.137-2.919,95.123,1.737,124.295c4.655,29.173-22.432,162.958-10.289,184.375c0,0,101.045,88.134,220.946,85.426
			c0,0,0.976-167.068,9.873-205.403c11.402-49.114,38.287-162.203,38.287-162.203s12.521-75.777,0.092-81.935
			c-26.817-13.285-98.399-39.38-98.399-39.38L406.708,458.739z"/>
		<path style="fill:#EEA987;" d="M393.257,472.59c0,0,16.408,9.433,75.121-9.254c0,0,2.536-38.607,17.385-73.328
			c14.849-34.723-80.371,39.8-80.371,39.8c0.836,0.735,0.626,4.342-0.428,9.291c-0.893,4.196-2.386,9.354-4.358,14.54
			C396.171,465.305,397.132,463.251,393.257,472.59z"/>
		<path style="fill:#A77860;" d="M400.605,453.639c56.697-3.389,68.417-34.169,68.596-34.652
			c-24.645,25.599-64.117,19.544-64.117,19.544C404.191,442.727,402.578,448.453,400.605,453.639z"/>
		<g>
			<path style="fill:#EEA886;" d="M591.077,735.312c21.61,23.572,119.552,134.947,119.552,134.947l22.284-19.545
				c0,0-28.702-52.327-68.846-109.912c-11.133-15.971-25.874-53.541-28.053-56.134c-2.177-2.592-34.912-79.435-38.658-103.375
				c-1.487-9.5-10.496-37.549-16.344-61.438c-6.542-26.737-68.417-39.847-68.417-39.847
				C461.504,496.183,531.263,596.3,531.263,596.3S560.788,702.273,591.077,735.312z"/>
		</g>
		<path style="fill:#D44040;" d="M529.072,607.695l76.462-13.49c0,0-1.582-79.098-54.842-104.937
			c-53.259-25.838-82.314-25.932-82.314-25.932L529.072,607.695z"/>
		<g>
			<path style="fill:#323657;" d="M531.943,734.128l11.82-11.696c-44.335-52.046-58.676-106.935-42.626-163.145
				c12.008-42.052,41.678-73.354,41.929-73.623l-16.228-6.994c-1.145,1.208-28.575,30.127-41.687,76.053
				c-7.741,27.109-8.984,54.508-3.693,81.431C488.03,669.597,505.569,703.167,531.943,734.128z"/>
		</g>
		<path style="fill:#D44040;" d="M303.626,432.413l-35.67,69.173c0,0,28.216,22.661,38.232,81.399
			c8.335,48.867,52.01-121.456,52.01-121.456S338.358,459.739,303.626,432.413z"/>
		<g>
			<path style="fill:#323657;" d="M292.969,664.885l13.594,6.961c-6.895-88.104,4.888-131.179,14.979-161.37
				c10.859-32.499,28.148-50.898,28.291-51.039l-15.928-6.962C331.347,454.978,275.552,503.832,292.969,664.885z"/>
		</g>
		<path style="fill:#EEA987;" d="M386.527,461.411c0,0-55.904,74.105-9.078,92c61.09,23.347,111.828-86.864,111.828-86.864
			S454.041,452.101,386.527,461.411z"/>
		<g>
			<path style="fill:#EEA886;" d="M420.614,272.776c0,0-47.415,5.195-50.788,91.092c-3.721,94.747,66.692,81.288,86.405,66.977
				c19.714-14.309,39.245-49.207,44.821-77.034C506.63,325.984,514.182,249.706,420.614,272.776z"/>
		</g>
		<g>
			<path style="fill:#323657;" d="M372.985,327.2c0,0,6.846-30.694,44.103-17.751c37.257,12.945,69.087,49.234,61.23,97.015
				c0,0,67.854-77.698,31.919-120.84C474.303,242.481,387.356,243.11,372.985,327.2z"/>
		</g>
		<g>
			<path style="fill:#E8734D;" d="M426.492,313.273c0,0-48.03,32.54-59.786,31.559C366.706,344.832,370.168,286.336,426.492,313.273
				z"/>
		</g>
		<path style="fill:#EEA886;" d="M474.312,363.221c4.059-7.939,15.712-17.591,18.079-4.308
			c2.365,13.285-14.958,39.691-19.563,34.782C468.222,388.787,466.836,377.839,474.312,363.221z"/>
		<path style="fill:#323657;" d="M543.066,485.664c0,0-6.947-5.816-16.228-6.994C526.838,478.671,536.231,485.755,543.066,485.664z"
			/>
	</g>
	<g>
		<path style="fill:#EEA886;" d="M1805.616,883.599c0,0-21.11,9.608-25.978,1.673s-15.251-16.188-18.651-18.619
			c-4.547-3.25-15.179-18.469-18.896-12.728c-3.713,5.746,16.412,25.915,19.864,30.984c3.448,5.069-22.577,2.06-27.567,5.397
			c-4.99,3.337-5.234,48.365,12.756,48.282c17.99-0.079,36.578-12.562,39.777-11.922c3.194,0.641,23.858-4.065,23.858-4.065
			L1805.616,883.599z"/>
		<path style="fill:#EEA886;" d="M1738.537,889.253c0,0-54.882,4.069-58.176,7.544c-3.29,3.476-2.756,6.58,2.4,6.421
			c5.155-0.154,53.209-2.321,53.209-2.321s-63.649,16.243-66.973,18.445c-1.945,1.289-1.254,7.342,1.526,7.524
			c2.78,0.182,66.93-12.107,66.93-12.107s-59.4,15.279-61.611,18.015c-1.933,2.392,0.027,7.849,4.524,7.034
			c4.496-0.814,60.548-11.704,60.548-11.704s-42.431,13.994-42.937,17.521c-0.313,2.159,0.056,7.406,10.877,3.432
			c10.826-3.97,37.433-10.498,37.433-10.498L1738.537,889.253z"/>
		<g>
			<path style="fill:#C4C6D1;" d="M2313.84,1810.046c0,0,14.635,10.442,22.74,17.758c8.105,7.314,19.133,15.274,25.887,33.94
				c6.836,18.893-3.935,32.467-22.229,33.582c-18.291,1.118-46.325-12.692-49.058-29.441c-2.704-16.579-24.194-14.63-26.993-26.429
				c-2.804-11.799,0.94-26.314,0.94-26.314L2313.84,1810.046z"/>
		</g>
		<g>
			<path style="fill:#EEA886;" d="M2311.404,1796.33l2.436,13.716c0,0-7.532,13.941-48.713,3.096l2.123-13.515L2311.404,1796.33z"/>
		</g>
		<path style="fill:#C4C6D1;" d="M2265.127,1813.142c0,0,9.276,1.218,15.883,2.258c6.607,1.036,19.695-7.405,32.83-5.354
			l-4.041,16.678C2309.799,1826.724,2266.048,1818.531,2265.127,1813.142z"/>
		<g>
			<path style="fill:#C4C6D1;" d="M2051.053,1810.046c0,0-14.633,10.442-22.739,17.758c-8.105,7.314-19.134,15.274-25.887,33.94
				c-6.833,18.893,3.935,32.467,22.229,33.582c18.291,1.118,46.329-12.692,49.058-29.441c2.704-16.579,24.194-14.63,26.994-26.429
				c2.804-11.799-0.941-26.314-0.941-26.314L2051.053,1810.046z"/>
		</g>
		<g>
			<path style="fill:#EEA886;" d="M2053.489,1796.33l-2.437,13.716c0,0,7.533,13.941,48.714,3.096l-2.123-13.515L2053.489,1796.33z"
				/>
		</g>
		<g>
			<path style="fill:#292C47;" d="M2036.277,1050.517c0,0,141.933-27.986,215.517-1.546c3.076,1.103,6.03,2.301,8.85,3.602
				c0,0,0.174,1.254,0.498,3.606c0.735,5.437,2.277,16.776,4.325,32.209c0.349,2.594,0.704,5.307,1.08,8.126
				c10.474,79.293,26.128,194.545,29.121,250.782c3.931,73.781,8.022,84.287,8.03,98.162c0.012,37.393,13.147,352.31,13.147,352.31
				s-22.277,11.953-56.638,0c0,0-40.54-312.382-47.574-335.493c-7.03-23.107-56.839-233.741-65.648-234.745
				c-8.81-1.005-33.233,222.595-35.088,252.993c-1.858,30.386-0.099,312.39-10.15,317.411c-10.047,5.026-50.872,5.548-53.885-4.499
				c0,0-11.93-286.67-11.93-316.812c0-30.145-9.73-264.989-8.876-275.052C2027.057,1201.572,2024.289,1127.838,2036.277,1050.517z"
				/>
		</g>
		<g>
			<path style="fill:#FA6F41;" d="M2102.463,645.275c0,0-120.514,25.586-130.561,59.081
				c-10.048,33.491-27.908,88.597-49.809,175.633c-3.294,13.084-127.711-4.46-127.711-4.46s-10.356,53.059-10.632,54.763
				c-0.752,4.63,168.061,13.194,180.243,10.103c17.579-4.46,47.203-122.167,47.203-122.167s15.958,177.812,15.958,205.275
				c0,27.465-1.815,83.078-1.815,83.078s44.657,17.105,131.372,12.586c0,0,138.011-4.741,114.457-46.808
				c-17.813-31.807-6.896-245.785-4.215-247.125c2.681-1.34,50.793,58.922,46.104,70.524
				c-4.689,11.601-129.209,53.212-129.209,53.212s-3.638,13.412,15.705,43.795c0,0,185.992-54.352,186.66-65.739
				c0.673-11.384-77.359-232.531-102.843-244.104c-36.686-16.667-132.625-42.869-132.625-42.869L2102.463,645.275z"/>
		</g>
		<path style="fill:#C4C6D1;" d="M2099.767,1813.142c0,0-9.276,1.218-15.884,2.258c-6.606,1.036-19.69-7.405-32.83-5.354
			l4.042,16.678C2055.095,1826.724,2098.846,1818.531,2099.767,1813.142z"/>
		
			<rect x="2141.442" y="839.929" transform="matrix(-0.9603 0.2788 -0.2788 -0.9603 4607.5093 1246.4532)" style="fill:#D9C7C1;" width="147.349" height="221.895"/>
		
			<rect x="2154.989" y="835.998" transform="matrix(-0.9603 0.2788 -0.2788 -0.9603 4632.9692 1234.9692)" style="fill:#6DBD7D;" width="147.349" height="221.891"/>
		
			<rect x="2144.088" y="775.819" transform="matrix(-0.9603 0.2788 -0.2788 -0.9603 4628.9819 1158.4108)" style="fill:#EDDAD3;" width="176.054" height="265.119"/>
		
			<rect x="2160.276" y="771.122" transform="matrix(-0.9604 0.2788 -0.2788 -0.9604 4659.3989 1144.7513)" style="fill:#548AD1;" width="176.053" height="265.116"/>
		
			<rect x="2182.424" y="822.966" transform="matrix(-0.9603 0.2788 -0.2788 -0.9603 4607.3291 1006.1335)" style="fill:#609EF0;" width="99.383" height="15.489"/>
		
			<rect x="2192.518" y="850.954" transform="matrix(-0.9603 0.2788 -0.2788 -0.9603 4634.9214 1058.1864)" style="fill:#609EF0;" width="99.382" height="15.487"/>
		<path style="fill:#E6A281;" d="M2145.206,942.81c0,0-13.443-0.368-17.56-0.965c-4.116-0.593-1.4,8.161,3.381,9.81
			C2135.804,953.308,2145.206,942.81,2145.206,942.81z"/>
		<path style="fill:#EEA886;" d="M2137.35,1007.016c0,0,5.867,1.427,8.738,0.798c0,0,5.136-1.546,8.853-2.423
			c1.179-0.273,2.215-0.486,2.895-0.554c2.852-0.285,9.197-0.06,15.852-2.665c6.651-2.598,29.216-14.171,29.216-14.171
			l-6.452-20.976l-4.863-16.619c0,0-38.137-10.15-44.613-8.441c-0.633,0.17-1.25,0.363-1.819,0.589
			c-5.342,1.977-8.489,5.694-11.174,7.05c-0.984,0.506-10.427,6.18-10.917,9.435c-0.692,4.515,0.664,7.924,2.989,10.02
			c0,0-0.957,8.904,2.345,13.95c0,0-1.15,8.185,4.741,13.289C2133.139,996.296,2132.905,1004.729,2137.35,1007.016z"/>
		<path style="fill:#FA6F41;" d="M2183.849,947.662c0,0-0.32,28.101,17.018,49.093c0,0,135.271-46.606,151.537-53.003
			c16.267-6.398-59.112-206.7-59.112-206.7l-55.458,18.88l29.797,56.345c0,0,14.748,31.565,45.428,83.481
			C2313.058,895.758,2294.178,912.376,2183.849,947.662z"/>
		<path style="fill:#EED9CF;" d="M2190.669,651.463c0,0,1.349,53.612-53.873,52.327c-57.159-1.329-45.044-56.044-45.044-56.044
			S2135.017,628.91,2190.669,651.463z"/>
		<path style="fill:#EEA886;" d="M2104.421,603.363c0,0,4.966,27.215-3.575,45.799c0,0-8.694,43.316,35.649,45.257
			c44.345,1.941,43.862-46.724,43.862-46.724s-9.11-5.307-2.028-44.064C2185.41,564.875,2104.421,603.363,2104.421,603.363z"/>
		<g>
			<path style="fill:#EEA886;" d="M2131.379,445.978c0,0-56.74,9.154-48.101,100.068c8.64,90.911,58.717,83.461,62.062,83.366
				c3.35-0.09,50.275,1.661,53.934-109.34C2199.273,520.072,2200.871,437.995,2131.379,445.978z"/>
		</g>
		<g>
			<path style="fill:#EEA886;" d="M2082.4,520.364c0,0-6.216-6.797-8.493,0.083c-2.277,6.884,8.094,36.516,8.861,39.003
				c0,0,1.135,2.669,2.625,1.202C2086.885,559.181,2082.4,520.364,2082.4,520.364z"/>
		</g>
		<g>
			<path style="fill:#EEA886;" d="M2197.897,519.213c0,0,6.085-6.916,8.492-0.083c2.409,6.837-7.631,38.01-8.125,39.172
				c0,0-1.083,2.689-2.602,1.25C2194.145,558.113,2197.897,519.213,2197.897,519.213z"/>
		</g>
		<g>
			<path style="fill:#434343;" d="M2082.428,534.31l8.122,11.118c0,0-0.229-24.38,1.075-28.204
				c1.301-3.823-1.542-17.136-0.45-19.889c1.087-2.755,38.809,7.493,100.669,1.194c0,0-6.88,21.964-2.852,23.522
				c4.033,1.562,2.057,28.556,2.057,28.556l6.678-7.718c0,0,7.545-46.111,6.81-53.81c-0.977-10.245,2.499-58.092-84.545-49.88
				c-9.964,0.941-19.532,4.594-27.492,10.806c-8.943,6.983-18.141,17.876-17.299,32.846
				C2076.312,502.635,2082.428,534.31,2082.428,534.31z"/>
		</g>
		<path style="fill:#A77860;" d="M2171.191,617.368c0,0-23.407,27.33-60.571,0c0,0,10.419,20.735,32.269,21.221
			C2164.735,639.072,2171.191,617.368,2171.191,617.368z"/>
	</g>
	<g>
		<path style="fill:#EEA886;" d="M820.072,1719.002l-7.706,19.381c0,0-24.531-6.109-28.993-19.381l8.516-15.8L820.072,1719.002z"/>
		<polygon style="fill:#EEA886;" points="1184.004,1788.212 1188.564,1810.334 1156.631,1821.392 1147.205,1796.111 		"/>
		<g>
			<path style="fill:#494F80;" d="M1005.893,1255.361c2.376,8.457,16.116,43.533,31.475,82.498v0.007
				c14.007,35.525,29.36,74.272,38.684,99.045c3.481,9.242,6.122,16.536,7.542,20.985c9.386,29.465,5.067,77.268,5.536,116.875
				c0.462,39.614,56.553,228.01,56.553,228.01c9.999,3.87,41.638-11.306,41.638-11.306c-4.399-20.839-26.351-252.651-23.678-268.328
				c2.673-15.68,1.946-58.63-3.197-75.005c-1.052-3.365-1.788-7.855-2.295-13.295c-1.95-21.045-0.458-56.23-0.852-94.645
				c-0.493-48.345-27.698-166.378-31.089-176.847c-0.313-0.968-0.793-2.314-1.405-3.978c-6.024-16.364-24.934-62.691-24.934-62.691
				c-31.649-6.983-55.056-6.774-72.147-1.644c-22.624,6.778-34.176,22.178-39.091,40.916
				C976.867,1180.674,1002.813,1244.385,1005.893,1255.361z"/>
		</g>
		<g>
			<path style="fill:#494F80;" d="M787.631,1703.834l34.872,22.331c20.276-26.126,140.373-184.803,150.064-204.682
				c9.691-19.874,21.722-59.037,23.105-73.703c0.249-2.621,0.846-7.021,1.745-12.72c3.467-22.092,11.34-63.621,20.036-95.684
				c1.619-5.981,3.268-11.635,4.926-16.768c8.873-27.514,19.021-123.563,24.429-180.107c2.407-25.164,3.877-42.501,3.877-42.501
				s-0.499-0.501-1.43-1.394c-10.833-10.39-87.372-97.628-118.484-47.858c-8.218,13.146-19.198,40.358-23.4,55.587
				c-12.88,46.662-24.849,100.016-14.136,148.249c11.869,53.441,18.844,71.723,26.649,145.737
				c2.542,24.11-4.706,57.299-10.836,66.227c-17.277,25.165-33.831,46.273-72.549,137.333
				C823.901,1633.498,787.631,1703.834,787.631,1703.834z"/>
		</g>
		<g>
			<g>
				<g>
					<path style="fill:#E8734D;" d="M1061.326,491.114c0,0,44.493,22.615,33.493,84.139c-11.001,61.523-15.869,69.812-3.564,93.852
						c12.304,24.04,26.825,126.588,15.75,146.025c-11.074,19.434-137.078-85.417-154.551-173.388
						c-17.475-87.975,11.074-127.1,21.164-141.677C983.708,485.487,1022.047,470.398,1061.326,491.114z"/>
				</g>
			</g>
		</g>
		<g>
			<polygon style="fill:#51578C;" points="1088.288,668.798 1017.062,602.425 1057.961,566.919 1122.162,636.791 			"/>
		</g>
		<g>
			<polygon style="fill:#3E3B42;" points="1086.335,661.904 1024.693,604.463 1060.089,573.731 1115.65,634.201 			"/>
		</g>
		<g>
			<path style="fill:#E3A080;" d="M1128.883,670.077c0,0-10.76-2.591-7.527-15.212c3.232-12.625-1.72-15.557-1.72-15.557
				l-37.691,35.458c0,0,18.151,17.306,23.678,18.021C1111.151,693.5,1134.413,676.993,1128.883,670.077z"/>
		</g>
		<g>
			<path style="fill:#E3A080;" d="M1081.945,674.765c0,0-22.765-14.432-24.907-16.585c-2.143-2.149-12.316-11.762-16.473-17.444
				c-4.159-5.683,13.656-6.087,18.462-0.184c4.807,5.903,9.973,6.999,13.317,8.315c3.346,1.316,21.583,5.055,25.564,10.883
				C1101.89,665.579,1081.945,674.765,1081.945,674.765z"/>
		</g>
		<g>
			<path style="fill:#E3A080;" d="M1112.61,631.606c0,0-2.74,3.492-4.904-0.576c-2.164-4.071-1.948-13.414,3.591-11.141
				C1116.837,622.166,1112.61,631.606,1112.61,631.606z"/>
		</g>
		<g>
			<path style="fill:#E3A080;" d="M1105.634,619.197c0,0-0.986,6.905-4.416,3.78c-3.432-3.125-6.83-14.715-0.833-14.39
				C1106.382,608.908,1105.634,619.197,1105.634,619.197z"/>
		</g>
		<g>
			<path style="fill:#E3A080;" d="M1095.866,609.073c0,0-0.018,8.337-3.999,5.919c-2.999-1.821-7.246-16.85-1.25-16.529
				C1096.614,598.788,1095.866,609.073,1095.866,609.073z"/>
		</g>
		<g>
			<path style="fill:#FFCA55;" d="M1208.904,817.141c-16.8-0.34-35.435-1.959-54.388-4.917c-6.327-0.976-12.688-2.112-19.026-3.414
				c-30.218-6.105-59.961-15.687-83.171-29.038c-64.754-37.214-31.751-87.919-11.167-81.469
				c20.425,6.408,108.971,46.251,110.36,46.872l-55.753-54.521l34.828-32.485l108.766,104.881
				C1260.544,778.181,1226.543,817.496,1208.904,817.141z"/>
		</g>
		<path style="fill:#C49C41;" d="M1154.516,812.225c-6.327-0.976-12.688-2.112-19.026-3.414l-30.583-66.948
			C1104.907,741.863,1146.595,767.132,1154.516,812.225z"/>
		<path style="fill:#323657;" d="M967.283,980.7c-7.138,32.549-19.722,65.98-39.884,98.978c0,0-48.137,11.354-65.051-21.77
			c-6.664-13.045-7.769-53.116-2.819-103.106c7.611-76.972,29.61-177.449,67.87-238.916
			C927.398,715.887,998.189,840.007,967.283,980.7z"/>
		<path style="fill:#323657;" d="M967.283,980.7c-7.138,32.549-19.722,65.98-39.884,98.978c0,0-48.137,11.354-65.051-21.77
			c-6.664-13.045-7.769-53.116-2.819-103.106L967.283,980.7z"/>
		<g>
			<path style="fill:#EDDAD3;" d="M1038.958,697.732c0,0,28.819,14.139,38.824,16.218c10.006,2.083,48.829,54.484,55.633,73.619
				c6.804,19.131,0,47.829-14.008,81.514c-14.008,33.689-0.801,44.92-7.205,78.609c-6.404,33.685-6.399,125.526-5.199,144.242
				c1.201,18.715-175.557,65.483-212.78,31.378c0,0,24.807-90.222,45.104-135.923c3.913-8.805,5.974-48.016,1.572-59.661
				c-4.404-11.646-54.033-98.57-54.033-98.57s-10.257-86.719,11.396-104.193c18.811-15.179,76.693-22.04,85.898-25.367
				C993.37,696.269,1020.147,694.819,1038.958,697.732z"/>
		</g>
		<g>
			<path style="fill:#FFCA55;" d="M1119.408,869.079c-14.005,33.689-0.801,44.924-7.205,78.613
				c-6.406,33.689-6.394,125.53-5.199,144.242c1.207,18.712-175.557,65.49-212.78,31.378c0,0,9.687-35.232,21.909-72.821
				c1.511-4.64,3.057-9.328,4.636-13.979c6.066-17.954,12.517-35.507,18.56-49.123c3.913-8.808,5.976-48.016,1.567-59.661
				c-4.396-11.65-54.023-98.57-54.023-98.57s-10.261-86.719,11.389-104.19c7.397-5.967,20.828-10.651,34.968-14.345
				c5.31-1.379,10.734-2.625,15.967-3.735c16.26-3.492,30.738-5.765,34.967-7.29c9.2-3.328,35.982-4.778,54.8-1.862
				c0,0,28.812,14.132,38.814,16.218c10.012,2.071,48.837,54.483,55.635,73.607C1140.224,806.695,1133.412,835.393,1119.408,869.079
				z"/>
		</g>
		<g>
			<path style="fill:#EEA886;" d="M1041.371,662.214c0,0-7.3,40.449,10.948,68.724c0,0-34.097,36.239-68.156-31.341
				c0,0,14.332-27.853,3.545-65.808C976.923,595.834,1041.371,662.214,1041.371,662.214z"/>
		</g>
		<path style="fill:#EEA886;" d="M961.186,704.439c0,0,36.216,61.101,77.125,58.529c56.63-3.563,26.75-55.448,26.75-55.448
			s-21.244-8.801-25.212-9.597c-3.967-0.792-55.319,0.909-55.319,0.909L961.186,704.439z"/>
		<path style="fill:#323657;" d="M1039.923,953.983c-5.604,34.811-20.477,60.768-44.235,77.137
			c-22.813,15.725-49.49,19.628-70.363,19.628c-3.213,0-6.293-0.094-9.19-0.258c1.511-4.64,3.057-9.328,4.636-13.979
			c19.518,0.56,45.892-2.24,67.51-17.157c20.453-14.129,33.343-36.908,38.293-67.692c10.565-65.711-1.038-125.537-34.46-177.822
			c-25.055-39.185-58.591-63.016-58.884-63.217c0,0,5.199-2.812,15.956-3.746c0,0,0.011,0,0.011,0.011
			c1.342,0.923,27.333,17.4,53.843,58.645C1027.553,803.674,1053.85,867.321,1039.923,953.983z"/>
		<g>
			<g>
				<g>
					<g>
						<g>
							<path style="fill:#EEA886;" d="M1049.27,997.158c0,0-5.179,1.73-7.798,1.342c0,0-4.713-1.092-8.109-1.66
								c-1.08-0.172-2.022-0.303-2.639-0.318c-2.582-0.071-8.264,0.576-14.417-1.402c-6.144-1.974-30.546-17.58-30.546-17.58
								l4.372-16.099l2.025-15.68c0,0,38.256-9.822,44.189-8.67c0.579,0.116,1.146,0.251,1.67,0.423
								c4.933,1.481,8.001,4.737,10.506,5.817c0.916,0.404,9.77,5.055,10.426,8.061c0.917,4.169-0.076,7.443-2.027,9.56
								c0,0,1.446,8.244-1.188,13.179c0,0,1.57,7.564-3.387,12.73C1052.346,986.861,1053.111,994.72,1049.27,997.158z"/>
						</g>
					</g>
				</g>
			</g>
		</g>
		<g>
			<path style="fill:#FFCA55;" d="M938.94,715.879c0,0-37.761-6.778-58.384,28.133c-23.6,39.952-23.206,58.331-26.847,78.49
				c-3.438,19.037-14.717,49.69-16.147,55.037c-1.428,5.346-28.822,59.822-17.478,82.901
				c11.405,23.198,167.816,25.815,169.088,30.702c0.81,3.107,8.23-48.573,8.23-48.573s-52.715-8.203-69.066-9.665
				c-19.531-1.75-37.493-13.392-34.935-23.318c5.634-21.864,18.709-52.461,23.958-62.836
				C922.606,836.376,968.956,730.789,938.94,715.879z"/>
		</g>
		<path style="fill:#213A70;" d="M1166.631,1815.653c0,0,11.76-10.868,17.631-12.154c5.874-1.282,11.436-0.961,13.908,1.93
			c2.474,2.89,9.603,14.45,13.455,17.983c3.854,3.532,31.359,31.154,37.85,33.079c6.49,1.929,34.615,0.321,33.069,17.344
			s-24.415,24.409-65.212,20.556c-40.796-3.854-35.851-13.811-58.722-18.948c-22.87-5.141-24.415-17.022-20.398-31.475
			c4.018-14.454,16.575-28.156,14.902-32.007C1151.441,1808.105,1166.631,1815.653,1166.631,1815.653z"/>
		<path style="fill:#213A70;" d="M791.436,1725.447c0,0,14.305-0.09,22.104,3.884c7.796,3.971,4.78,8.622,5.443,12.607
			c0.664,3.982,6.703,42.06,9.522,49.717c2.818,7.656,18.531,21.65,10.295,33.704c-8.233,12.05-33.433,6.707-60.089-10.252
			c-26.658-16.958-28.77-50.74-30.644-59.019c-1.875-8.277,30.47-40.886,36.2-41.577
			C789.995,1713.82,791.436,1725.447,791.436,1725.447z"/>
		<g>
			<g>
				<g>
					<path style="fill:#EEA987;" d="M1054.875,497.934c0,0,64.601,21.101,29.531,136.947
						c-35.068,115.847-123.296-13.425-114.068-84.008S1054.875,497.934,1054.875,497.934z"/>
				</g>
			</g>
		</g>
		<g>
			<g>
				<g>
					<path style="fill:#E8734D;" d="M1091.009,565.532c0,0-32.1,32.732-85.82,36.826c0,0-20.644,25.154-22.231,35.027
						c0,0-47.931-84.897,10.988-135.789C1052.863,450.707,1112.666,544.562,1091.009,565.532z"/>
				</g>
			</g>
		</g>
		<g>
			<g>
				<g>
					<path style="fill:#EEA987;" d="M1006.268,604.661c-0.415-8.431-5.413-27.617-17.473-22.249
						c-12.058,5.373,0.74,44.446,8.738,42.042C997.533,624.454,1007.254,624.611,1006.268,604.661z"/>
				</g>
			</g>
		</g>
	</g>
	<g>
		<g>
			<path style="fill:#EEA886;" d="M1843.974,585.837c0,0,52.55,6.133,55.506,9.498c2.952,3.363,2.251,6.214-2.701,5.847
				c-4.947-0.366-51.046-4.443-51.046-4.443s60.244,17.796,63.305,19.98c1.797,1.279,0.762,6.857-1.924,6.906
				c-2.685,0.051-63.646-14.103-63.646-14.103s56.212,16.719,58.174,19.348c1.714,2.302-0.507,7.272-4.779,6.325
				c-4.276-0.947-57.532-13.455-57.532-13.455s39.966,14.794,40.235,18.087c0.169,2.015-0.499,6.861-10.672,2.712
				c-10.17-4.149-35.37-11.343-35.37-11.343L1843.974,585.837z"/>
		</g>
		<g>
			<g>
				<path style="fill:#EEA886;" d="M1781.831,588.319c0,0,17.496,0.91,22.845-7.939c4.547-7.527,15.658-14.347,19.075-16.453
					c4.569-2.815,15.725-16.464,18.951-10.982c3.226,5.48-17.364,23.309-20.992,27.856c-3.627,4.55,21.592,2.883,26.19,6.191
					c4.6,3.309,2.098,45.046-15.203,44.194c-17.305-0.85-34.429-13.219-37.542-12.761c-3.117,0.456-12.648-0.12-12.648-0.12
					L1781.831,588.319z"/>
			</g>
		</g>
		<g>
			<path style="fill:#D44040;" d="M1789.131,629.58c0,0-128.92-18.051-157.53-25.09c-13.228-3.254-30.647-21.513-47.205-42.977
				c-5.458-7.07-10.812-14.489-15.901-21.832c-0.016-0.015-0.016-0.03-0.016-0.03c-20.312-29.325-36.229-57.434-36.229-57.434
				s-60.036-70.357-11.859-101.721c0,0,14.613-2.479,24.028,0.229c29.755,8.559,54.152,68.693,58.36,77.876
				c4.213,9.166,48.59,91.143,51.644,93.057c3.057,1.917,40.118,10.044,60.416,14.279c29.395,6.131,84.627,17.599,84.627,17.599
				L1789.131,629.58z"/>
		</g>
		<g>
			<path style="fill:#202338;" d="M1375.276,1493.22c0,0-10.606,19.786-17.535,27.639c-6.93,7.854-33.464,21.892-33.608,45.215
				c-0.156,25.293,44.73,18.274,62.285,17.35c17.556-0.923,18.883-14.437,26.275-28.757c7.392-14.322,14.84-11.896,16.226-23.444
				c1.387-11.55-7.157-38.002-7.157-38.002H1375.276z"/>
		</g>
		<g>
			<path style="fill:#202338;" d="M1642.501,1490.915c0,0,21.633,24.149,43.593,29.21c21.959,5.061,37.324,11.515,37.489,25.371
				c0.165,13.859-63.2,22.993-88.333,9.021c-37.504-20.852-41.319-14.565-45.476-24.99c-4.16-10.422,4.993-38.294,4.723-41.608
				C1594.164,1483.823,1642.501,1490.915,1642.501,1490.915z"/>
		</g>
		<g>
			<path style="fill:#81807E;" d="M1640.07,1479.359c0,0,2.854,11.316,2.431,11.556c-0.424,0.237-49.485,6.084-48.004-2.996
				c1.204-7.363,2.922-15.366,2.922-15.366L1640.07,1479.359z"/>
		</g>
		<g>
			<path style="fill:#81807E;" d="M1421.153,1485.581c0,0,2.054,10.796,1.656,11.055c-0.397,0.259-49.752,9.074-49.473,0.11
				c0.221-7.12,4.552-15.416,4.552-15.416L1421.153,1485.581z"/>
		</g>
		<g>
			<path style="fill:#292C47;" d="M1595.462,802.057c0,0,17.844,173.282,27.12,232.601c10.852,69.357,14.528,126.665,17.556,162.563
				c3.804,45.151,4.539,267.261,7.206,280.461c2.664,13.202-59.103,3.647-59.103,3.647s-30.389-290.209-41.725-338.296
				c-10.552-44.776-49.727-237.547-59.357-225.32c-9.631,12.227-21.573,224.96-28.706,260.273
				c-7.131,35.312-28.826,311.775-28.826,311.775s-49.158,9.789-62.232-1.276c0,0-5.953-238.257-1.409-304.463
				c1.731-25.231-29.563-302.529,10.565-414.163C1397.759,710.864,1595.462,802.057,1595.462,802.057z"/>
		</g>
		<g>
			<path style="fill:#323657;" d="M1390.204,670.922c-1.847,33.32-9.125,68.457-24.233,104.487c0,0-47.387,19.582-70.266-10.111
				c-9.012-11.688-16.867-50.984-20.185-101.106c-5.122-77.175,0.545-180.023,29.407-247.265
				C1304.929,416.927,1398.245,526.895,1390.204,670.922z"/>
		</g>
		<g>
			<path style="fill:#E8734D;" d="M1390.204,670.922c-1.847,33.32-9.125,68.457-24.233,104.487c0,0-47.387,19.582-70.266-10.111
				c-9.012-11.688-16.867-50.984-20.185-101.106L1390.204,670.922z"/>
		</g>
		<g>
			<path style="fill:#B83838;" d="M1592.914,772.862l3.493,31.855c0,0-66.941,31.14-237.799,49.48l-0.441-28.816L1592.914,772.862z"
				/>
		</g>
		<g>
			<path style="fill:#D44040;" d="M1469.656,373.199c0,0,20.928,2.677,70.085,6.612c8.583,5.978,35.779,76.711,38.6,95.222
				c2.821,18.508,4.337,91.322-0.412,121.094c-4.753,29.771,30.864,161.694,18.479,183.553c0,0-120.833,50.095-243.197,47.332
				c0,0,1.339-120.658-7.743-159.783c-11.635-50.122-39.071-165.532-39.071-165.532s-9.89-90.719,2.677-97.238
				c28.319-14.693,97.649-26.567,97.649-26.567L1469.656,373.199z"/>
		</g>
		<g>
			<path style="fill:#B83838;" d="M1497.91,376.428c0,0,1.87-17.07-50.744-15.337c-52.616,1.731-86.67,17.25-86.047,32.333
				c0.623,15.083,137.854,38.185,137.854,38.185L1497.91,376.428z"/>
		</g>
		<g>
			<path style="fill:#EEA987;" d="M1424.242,187.411c0,0,70.417-34.997,76.284,62.941c5.865,97.936-10.257,109.683-59.951,101.247
				c-49.696-8.436-60.334-69.506-69.787-98.416C1361.333,224.271,1400.721,194.236,1424.242,187.411z"/>
		</g>
		<g>
			<path style="fill:#EEA987;" d="M1483.383,387.334c0,0-16.741,9.628-76.661-9.443c0,0-2.59-39.398-17.743-74.834
				c-15.155-35.435,82.02,40.618,82.02,40.618c-0.854,0.751-0.638,4.432,0.437,9.483c0.911,4.282,2.436,9.547,4.447,14.838
				C1480.412,379.899,1479.43,377.804,1483.383,387.334z"/>
		</g>
		<g>
			<path style="fill:#292C47;" d="M1386.162,300.419c0,0-3-26.009,7.568-29.565c10.567-3.558,17.758,10.893,17.758,10.893
				l8.666-1.403c0,0-10.62-25.543-0.947-32.699c9.67-7.153,71.977-8.461,78.773-18.172c6.795-9.712-10.097-61.253-27.496-64.626
				c-17.399-3.37-64.537-8.935-90.964,20.217c0,0-23.935,13.531-22.734,34.337C1357.985,240.209,1375.841,287.249,1386.162,300.419z
				"/>
		</g>
		<g>
			<path style="fill:#A77860;" d="M1475.883,367.995c-57.86-3.461-69.821-34.871-70.001-35.363
				c25.15,26.124,65.554,20.525,65.554,20.525C1472.348,357.439,1473.872,362.704,1475.883,367.995z"/>
		</g>
		<g>
			<path style="fill:#EEA987;" d="M1404.798,258.489c-4.16-8.24-22.332-5.198-18.999,8.215
				c3.333,13.412,20.695,32.757,26.344,28.175C1417.791,290.297,1410.534,269.851,1404.798,258.489z"/>
		</g>
		<g>
			<path style="fill:#EFAA88;" d="M1321.85,870.663c0,0-3.391-5.327-3.736-8.38c0,0-0.204-5.603-0.591-9.576
				c-0.127-1.261-0.266-2.356-0.429-3.054c-0.681-2.918-3.048-9.119-2.716-16.588c0.328-7.457,4.162-33.695,4.162-33.695
				l22.938-0.696l18.943-6.122c0,0,22.063,39.637,22.559,46.625c0.044,0.684,0.064,1.359,0.032,1.995
				c-0.152,5.959-2.77,10.325-3.205,13.442c-0.169,1.145-2.596,12.404-5.65,13.988c-4.237,2.208-8.071,2.018-10.928,0.424
				c0,0-8.488,3.954-14.596,2.39c0,0-7.71,3.901-14.753-0.206C1333.882,871.21,1325.615,874.288,1321.85,870.663z"/>
		</g>
		<g>
			<path style="fill:#D44040;" d="M1337.823,398.918c8.091,1.57,19.398,18.433,19.891,55.399c0.527,39.664-9.23,58.4-12.724,68.321
				c-3.492,9.92-24.304,75.603-22.589,84.458c4.464,23.06,14.89,84.178,16.462,88.716c2.684,7.753,24.358,98.767,24.358,98.767
				l-46.682,20.586c0,0-28.254-101.945-38.24-132.501c-4.004-12.259-13.975-46.072-15.804-81.224
				c-1.765-33.909,9.083-111.514,11.255-117.922C1275.922,477.105,1284.324,388.542,1337.823,398.918z"/>
		</g>
		<g>
			<path style="fill:#323657;" d="M1342.703,653.308l-12.916-11c45.245-53.115,59.88-109.131,43.503-166.494
				c-12.255-42.918-46.109-78.422-46.368-78.694l18.06-5.531c1.168,1.232,31.24,32.699,44.622,79.566
				c7.9,27.667,9.168,55.629,3.768,83.104C1386.665,588.388,1369.618,621.713,1342.703,653.308z"/>
		</g>
		<g>
			<path style="fill:#323657;" d="M1591.459,557.126l-10.718-0.417c0.027-0.527-6.583-25.244-13.725-58.539
				c-6.584-30.698-27.775-81.778-62.642-121.388l18.224,1.613c37.215,42.279,52.708,84.407,59.651,117.052
				C1589.774,530.832,1591.515,556.07,1591.459,557.126z M1580.741,556.709L1580.741,556.709
				C1580.745,556.708,1580.741,556.713,1580.741,556.709L1580.741,556.709z"/>
		</g>
		<g>
			<path style="fill:#323657;" d="M1591.459,557.126c0,0-0.015,16.423-11.711,21.802c0,0,0.993-17.803-1.599-32.772
				C1575.595,531.4,1591.459,557.126,1591.459,557.126z"/>
		</g>
		<g>
			<path style="fill:#323657;" d="M1504.375,376.782c0,0,8.367-1.039,18.224,1.613
				C1522.599,378.395,1510.771,381.584,1504.375,376.782z"/>
		</g>
		<g>
			<path style="fill:#323657;" d="M1326.922,397.119c0,0,6.872-4.749,18.06-5.531
				C1344.982,391.588,1338.958,398.256,1326.922,397.119z"/>
		</g>
	</g>
</g>
</svg>
